<?xml version="1.0" encoding="UTF-8" standalone="no"?>
<svg
   xmlns:dc="http://purl.org/dc/elements/1.1/"
   xmlns:cc="http://creativecommons.org/ns#"
   xmlns:rdf="http://www.w3.org/1999/02/22-rdf-syntax-ns#"
   xmlns:svg="http://www.w3.org/2000/svg"
   xmlns="http://www.w3.org/2000/svg"
   xmlns:sodipodi="http://sodipodi.sourceforge.net/DTD/sodipodi-0.dtd"
   xmlns:inkscape="http://www.inkscape.org/namespaces/inkscape"
   width="6.4468732cm"
   height="7.2236409cm"
   viewBox="0 0 60.898803 68.236349"
   preserveAspectRatio="none"
   version="1.1"
   id="svg2009"
   sodipodi:docname="ggtrack-logo.svg"
   inkscape:version="1.0.2 (e86c870879, 2021-01-15)"><metadata
   id="metadata2015">
  <rdf:RDF>
    <cc:Work
       rdf:about="">
      <dc:format>image/svg+xml</dc:format>
      <dc:type
         rdf:resource="http://purl.org/dc/dcmitype/StillImage" />
      <dc:title />
    </cc:Work>
  </rdf:RDF>
</metadata>
<defs
   id="defs2013">nttnttnt</defs>
<sodipodi:namedview
   pagecolor="#ffffff"
   bordercolor="#666666"
   borderopacity="1"
   objecttolerance="10"
   gridtolerance="10"
   guidetolerance="10"
   inkscape:pageopacity="0"
   inkscape:pageshadow="2"
   inkscape:window-width="2560"
   inkscape:window-height="1372"
   id="namedview2011"
   showgrid="false"
   inkscape:zoom="1.4564884"
   inkscape:cx="332.68306"
   inkscape:cy="155.97157"
   inkscape:window-x="0"
   inkscape:window-y="34"
   inkscape:window-maximized="1"
   inkscape:current-layer="svg2009"
   inkscape:document-rotation="0">
  <inkscape:grid
     type="xygrid"
     id="grid3317" />
</sodipodi:namedview>

nt<path
   style="fill:#ff9955;fill-opacity:1;stroke:#20212b;stroke-width:0.749795;stroke-linecap:butt;stroke-linejoin:miter;stroke-miterlimit:4;stroke-dasharray:none;stroke-opacity:1"
   d="M 1.384064,17.451526 V 51.078775 L 30.577993,67.804077 59.771924,51.013408 V 17.301238 L 30.577993,0.433458 Z"
   id="path995" />
<path
   stroke="none"
   d="M 0,2.226824 H 60.898802 V 63.125625 H 0 Z"
   fill="none"
   id="path2"
   style="stroke-width:3.80618" />
<g
   aria-label="ggtrack"
   id="text999"
   style="font-style:normal;font-weight:normal;font-size:25.4681px;line-height:1.25;font-family:sans-serif;letter-spacing:0px;word-spacing:0px;fill:#20212b;fill-opacity:1;stroke:none;stroke-width:0.955053"
   transform="matrix(0.50278202,0,0,0.50278202,-4.196136,60.055843)">
  <path
     d="m 26.853652,-81.041837 q 0,-2.062916 1.375278,-3.412726 1.400745,-1.375277 3.463661,-1.375277 h 5.50111 v 1.655427 h -1.910108 q 0.611235,0.254681 1.018724,1.120596 0.432958,0.840447 0.432958,1.757299 0,2.292129 -1.273405,3.591002 -1.273405,1.298873 -3.540066,1.298873 -0.891383,0 -1.655426,-0.254681 -0.203745,0.203745 -0.203745,0.483894 0,0.585766 2.776023,1.349809 3.973023,1.120596 3.973023,4.02396 0,1.961043 -1.400745,2.979767 -1.400746,1.044193 -3.692875,1.044193 -2.088384,0 -4.253172,-1.324342 l 0.840447,-1.910107 q 2.037448,1.197001 3.565534,1.197001 1.06966,0 1.910107,-0.53483 0.840448,-0.509362 0.840448,-1.34981 0,-1.171532 -2.139321,-2.037448 -1.553554,-0.636702 -3.08164,-1.451681 -1.502618,-0.81498 -1.502618,-2.088385 0,-0.66217 0.331086,-1.579022 -1.375278,-1.47715 -1.375278,-3.183512 z m 5.068152,2.648682 q 1.273405,0 2.01198,-0.738575 0.764043,-0.764043 0.764043,-1.986512 0,-1.146064 -0.814979,-1.935575 -0.814979,-0.814979 -1.961044,-0.814979 -1.146064,0 -1.986512,0.814979 -0.814979,0.789511 -0.814979,1.935575 0,1.146065 0.814979,1.935576 0.840448,0.789511 1.986512,0.789511 z"
     style="font-style:normal;font-variant:normal;font-weight:bold;font-stretch:normal;font-size:25.4681px;font-family:Laksaman;-inkscape-font-specification:'Laksaman, Bold';font-variant-ligatures:normal;font-variant-caps:normal;font-variant-numeric:normal;font-variant-east-asian:normal;fill:#20212b;fill-opacity:1;stroke-width:0.955053"
     id="path1023" />
  <path
     d="m 39.562199,-81.041837 q 0,-2.062916 1.375277,-3.412726 1.400746,-1.375277 3.463662,-1.375277 h 5.501109 v 1.655427 H 47.99214 q 0.611234,0.254681 1.018724,1.120596 0.432958,0.840447 0.432958,1.757299 0,2.292129 -1.273405,3.591002 -1.273405,1.298873 -3.540066,1.298873 -0.891384,0 -1.655427,-0.254681 -0.203744,0.203745 -0.203744,0.483894 0,0.585766 2.776022,1.349809 3.973024,1.120596 3.973024,4.02396 0,1.961043 -1.400745,2.979767 -1.400746,1.044193 -3.692875,1.044193 -2.088384,0 -4.253173,-1.324342 l 0.840448,-1.910107 q 2.037448,1.197001 3.565534,1.197001 1.06966,0 1.910107,-0.53483 0.840447,-0.509362 0.840447,-1.34981 0,-1.171532 -2.13932,-2.037448 -1.553554,-0.636702 -3.08164,-1.451681 -1.502618,-0.81498 -1.502618,-2.088385 0,-0.66217 0.331085,-1.579022 -1.375277,-1.47715 -1.375277,-3.183512 z m 5.068152,2.648682 q 1.273405,0 2.01198,-0.738575 0.764043,-0.764043 0.764043,-1.986512 0,-1.146064 -0.814979,-1.935575 -0.81498,-0.814979 -1.961044,-0.814979 -1.146065,0 -1.986512,0.814979 -0.814979,0.789511 -0.814979,1.935575 0,1.146065 0.814979,1.935576 0.840447,0.789511 1.986512,0.789511 z"
     style="font-style:normal;font-variant:normal;font-weight:bold;font-stretch:normal;font-size:25.4681px;font-family:Laksaman;-inkscape-font-specification:'Laksaman, Bold';font-variant-ligatures:normal;font-variant-caps:normal;font-variant-numeric:normal;font-variant-east-asian:normal;fill:#20212b;fill-opacity:1;stroke-width:0.955053"
     id="path1025" />
  <path
     d="m 57.797323,-72.178939 q -1.808235,0 -2.801491,-1.222468 -0.993256,-1.247937 -0.993256,-3.234449 v -6.927323 H 51.40483 v -1.986512 h 2.597746 v -3.565534 l 2.41947,-1.044192 v 4.609726 h 4.176768 v 1.986512 h -4.176768 v 6.901855 q 0,2.317597 1.47715,2.317597 0.993256,0 2.13932,-0.40749 l 0.280149,2.01198 q -1.324341,0.560298 -2.521342,0.560298 z"
     style="font-style:normal;font-variant:normal;font-weight:bold;font-stretch:normal;font-size:25.4681px;font-family:Laksaman;-inkscape-font-specification:'Laksaman, Bold';font-variant-ligatures:normal;font-variant-caps:normal;font-variant-numeric:normal;font-variant-east-asian:normal;fill:#20212b;fill-opacity:1;stroke-width:0.955053"
     id="path1027" />
  <path
     d="m 64.953823,-83.919732 q 0.356553,-0.738575 1.451681,-1.375278 1.120597,-0.636702 2.139321,-0.636702 0.814979,0 1.222469,0.101872 v 2.062916 q -0.305618,-0.0764 -0.865916,-0.0764 -3.641938,0 -3.641938,4.380513 v 6.927323 h -2.41947 v -8.608218 q 0,-3.056172 -0.458425,-4.609726 h 2.13932 q 0.432958,0.713107 0.432958,1.833704 z"
     style="font-style:normal;font-variant:normal;font-weight:bold;font-stretch:normal;font-size:25.4681px;font-family:Laksaman;-inkscape-font-specification:'Laksaman, Bold';font-variant-ligatures:normal;font-variant-caps:normal;font-variant-numeric:normal;font-variant-east-asian:normal;fill:#20212b;fill-opacity:1;stroke-width:0.955053"
     id="path1029" />
  <path
     d="m 75.956013,-72.178939 q -1.961044,0 -3.285385,-1.06966 -1.324341,-1.06966 -1.324341,-2.852427 0,-4.838939 8.71009,-4.966279 -0.382021,-2.877896 -3.158044,-2.877896 -2.113853,0 -4.55879,0.94232 l -0.254681,-2.164788 q 2.597746,-0.764043 4.940811,-0.764043 5.424705,0 5.424705,5.577513 v 4.329577 q 0,1.451682 0.534831,3.36179 l -2.241193,0.483893 -0.382022,-1.706362 q -1.986511,1.706362 -4.405981,1.706362 z m 4.100364,-4.482385 v -2.317597 q -6.265152,0.12734 -6.265152,2.648682 0,2.037448 2.26666,2.037448 1.324342,0 2.648683,-0.687639 1.349809,-0.713106 1.349809,-1.680894 z"
     style="font-style:normal;font-variant:normal;font-weight:bold;font-stretch:normal;font-size:25.4681px;font-family:Laksaman;-inkscape-font-specification:'Laksaman, Bold';font-variant-ligatures:normal;font-variant-caps:normal;font-variant-numeric:normal;font-variant-east-asian:normal;fill:#20212b;fill-opacity:1;stroke-width:0.955053"
     id="path1031" />
  <path
     d="m 87.84957,-79.13173 q 0,2.139321 1.171533,3.540066 1.171533,1.375277 3.158044,1.375277 1.910108,0 3.718343,-1.120596 l 0.840447,1.986512 q -1.884639,1.171532 -4.482385,1.171532 -3.056172,0 -4.96628,-1.935575 -1.884639,-1.935576 -1.884639,-5.017216 0,-3.08164 1.884639,-4.991747 1.910108,-1.935576 4.96628,-1.935576 2.597746,0 4.482385,1.146065 l -0.840447,1.986511 q -1.782767,-1.095128 -3.718343,-1.095128 -1.986511,0 -3.158044,1.400746 -1.171533,1.375277 -1.171533,3.489129 z"
     style="font-style:normal;font-variant:normal;font-weight:bold;font-stretch:normal;font-size:25.4681px;font-family:Laksaman;-inkscape-font-specification:'Laksaman, Bold';font-variant-ligatures:normal;font-variant-caps:normal;font-variant-numeric:normal;font-variant-east-asian:normal;fill:#20212b;fill-opacity:1;stroke-width:0.955053"
     id="path1033" />
  <path
     d="m 111.40756,-72.764705 -2.49587,0.611235 -5.98501,-6.672643 -0.91685,0.764043 v 5.526578 h -2.419467 v -19.304819 h 2.419467 v 11.002219 l 5.8322,-4.991748 2.62321,0.458426 -5.85766,5.170024 z"
     style="font-style:normal;font-variant:normal;font-weight:bold;font-stretch:normal;font-size:25.4681px;font-family:Laksaman;-inkscape-font-specification:'Laksaman, Bold';font-variant-ligatures:normal;font-variant-caps:normal;font-variant-numeric:normal;font-variant-east-asian:normal;fill:#20212b;fill-opacity:1;stroke-width:0.955053"
     id="path1035" />
</g>

n<path
   style="fill:#20212b;fill-opacity:1;stroke:#20212b;stroke-width:0.36983;stroke-linecap:butt;stroke-linejoin:miter;stroke-miterlimit:4;stroke-dasharray:none;stroke-opacity:1"
   d="m 1.7834308,50.792695 1.229418,-3.342705 1.228264,1.237286 1.228264,-3.711863 1.228263,4.949152 1.228264,-3.711864 1.228264,-6.18644 1.2282652,4.949152 1.228262,-2.474576 1.228264,6.186439 1.228264,2.474576 1.228262,-1.237287 1.228265,2.474575 1.228266,-3.711864 1.228261,-1.237286 1.228265,3.711862 1.228264,-1.237287 1.228265,2.474576 1.228263,-3.711865 1.228263,-1.237286 1.228264,-2.474576 1.228263,-2.474576 1.228265,-6.186439 1.22826,8.661014 1.22827,-2.474576 1.22826,1.237288 1.22826,-2.474575 1.22827,-2.474575 1.22826,-2.474576 1.22827,1.237287 1.22826,-2.474575 2.45653,-7.423726 1.22826,2.474575 1.22826,3.711863 1.22827,2.474576 1.22826,-2.474576 1.22827,-1.237287 1.22826,-3.711865 1.22826,4.949152 1.22827,-2.474577 1.22826,-1.237286 1.22827,-1.237289 1.22826,-6.186439 1.22826,2.474576 1.22827,-4.949152 1.22826,-1.237287 1.22826,-1.237288 c -3.31342,10.08232 -6.68368,20.127267 -11.51766,29.209874 l -17.44576,7.533265 -0.5577,2.986173 z"
   id="path3319-6"
   sodipodi:nodetypes="ccccccccccccccccccccccccccccccccccccccccccccccccccc" />
<path
   style="fill:#8c4c66;fill-opacity:1;stroke:none;stroke-width:0.36983;stroke-linecap:butt;stroke-linejoin:miter;stroke-miterlimit:4;stroke-dasharray:none;stroke-opacity:1"
   d="m 1.749525,50.986157 1.2623456,-3.546066 1.2282637,1.237286 1.2282638,-3.711863 1.2282637,4.949152 1.2282639,-3.711864 1.2282637,-6.18644 1.2282646,4.949152 1.228262,-2.474576 1.228265,6.186439 1.228264,2.474576 1.228262,-1.237287 1.228265,2.474575 1.228265,-3.711864 1.228262,-1.237286 1.228265,3.711862 1.228263,-1.237287 1.228265,2.474576 1.228263,-3.711865 1.228264,-1.237286 1.228264,-2.474576 1.228263,-2.474576 1.228264,-6.186439 1.228264,8.661014 1.228263,-2.474576 1.228264,1.237288 1.228265,-2.474575 1.228263,-2.474575 1.228264,-2.474576 1.228264,1.237287 1.228263,-2.474575 2.456529,-7.423726 1.228263,2.474575 1.228262,3.711863 1.228266,2.474576 1.228263,-2.474576 1.228264,-1.237287 1.228264,-3.711865 1.228263,4.949152 1.228264,-2.474577 1.228264,-1.237286 1.228264,-1.237289 1.228264,-6.186439 1.228265,2.474576 1.228263,-4.949152 1.228263,-1.237287 1.11293,-1.237288 0.0019,33.051393 -28.824739,16.685104 v 0 z"
   id="path3319"
   sodipodi:nodetypes="ccccccccccccccccccccccccccccccccccccccccccccccccccc" />
<g
   id="g3241"
   transform="matrix(1.515022,0,0,1.5046208,-95.033221,31.716926)">
  <rect
     style="fill:#ff7f2a;fill-opacity:1;stroke:none;stroke-width:0.699453;stroke-linecap:round;stroke-linejoin:round"
     id="rect3222"
     width="15.188625"
     height="15.069307"
     x="75.41848"
     y="1.2256991" />
  <g
     id="g3209"
     transform="matrix(0.43230958,0,0,0.43230958,67.309983,8.2696008)">
    <rect
       x="21.856302"
       y="-13.327721"
       width="29"
       height="29"
       fill="#ffffff"
       id="rect1555" />
    <g
       id="g3194"
       transform="translate(20.121744,-8.7055277)">
      <g
         id="Pattern"
         transform="translate(1.7345584,-4.6221322)"><path
   id="rect1557"
   style="stroke-width:4.00109"
   d="m 0,0 v 4.0019531 4 4.0019529 4 4.001953 4 4.001953 h 28.007812 v -4.001953 -4 -4.001953 -4 -4.0019529 -4 V 0 Z m 36.009766,0 v 4.0019531 h 8.001953 v 4 h -8.001953 v 4.0019529 h 4.001953 v 4 4.001953 h -4.001953 v 4 h 4.001953 v 4.001953 h 4 v -4.001953 -4 -4.001953 h 4.001953 v -4 -4.0019529 h 4 v -4 h -4 V 0 Z m 16.003906,4.0019531 h 8.001953 v 4 h 4.001953 v -4 V 0 H 52.013672 Z m 12.003906,4 v 4.0019529 h 4 V 8.0019531 Z m 4,0 h 4.001953 v -4 h -4.001953 z m 4.001953,-4 h 4.001953 V 0 h -4.001953 z m -4.001953,8.0019529 v 4 4.001953 h 4.001953 v 4 4.001953 4 h -4.001953 v 4.001954 h 8.003906 v -4.001954 h 4 v -4 h -4 v -4.001953 -4 h 8.001954 v -4.001953 -4 H 80.021484 V 8.0019531 h -4 v 4.0019529 4 h -4.001953 v -4 z m 12.003906,16.003906 h 4.001954 v -4.001953 h -4.001954 z m 0,4 v 4.001954 h 4.001954 v -4.001954 z m 4.001954,4.001954 v 4.001953 h 4 v -4.001953 z m 0,4.001953 h -4.001954 v 4 4.001953 4 h -4 v -4 h -4.001953 v 4 h -4.001953 v 4.001953 h -8.001953 v -4.001953 -4 h 4.001953 v 4 h 4 v -4 -4.001953 H 56.015625 v 4.001953 h -4.001953 v 4 h -4 v 4.001953 h 4 v 4 h -4 v 4.001953 4 h 4 v -4 h 4.001953 v 4 h 4 v -4 h 8.001953 v -4.001953 h 4.001953 v -4 h 8.001953 v 4 h 8.001954 v -4 h -4 v -4.001953 -4 h 4 v -4.001953 h -4 z m 4,8.001953 v 4 4.001953 h 8.001953 v 4 h -4 v 4.001953 4 h -4.001953 v 4.001953 h 8.001953 v 4.001953 h 8.001949 v -4.001953 h -4 v -4.001953 h -4.001949 v -4 h 4.001949 v -4.001953 h 4 v 4.001953 h -4 v 4 h 4 v 4.001953 h 8.00391 v 4.001953 h 4 v -4.001953 -4.001953 h -8.00195 v -4 -4.001953 -4 h -8.00196 v -4.001953 h -4.001949 v -4 z m 20.005862,8.001953 h 8.00195 V 52.013672 H 108.0293 Z M 88.023438,68.017578 v -4 h -4 v 4 z m -8.001954,-8.001953 h -4 v 4.001953 4 h -4.001953 v 4.001953 h 4.001953 v 4.001953 h 4 v -4.001953 -4.001953 -4 z m 0,16.005859 v 4 h -4 v 4.001954 h 4 v 4 h -4 v 4.001953 4 4.001949 4 4.00196 h 12.001954 v 4.00195 4 h 12.003902 v -4 h -4.001949 v -4.00195 h 4.001949 v 4.00195 h 4 v 4 h 4.00196 v -4 -4.00195 h 4.00195 v -4.00196 h -4.00195 v -4 h -4.00196 v -4.001949 h -4 v -4 h 8.00196 v -4.001953 h -4.00196 v -4 h -4 v -4.001954 h -8.001949 v -4 h -4.001953 v 4 h -4 v -4 z m 24.005856,8.001954 h 12.00391 V 80.021484 H 104.02734 Z M 72.019531,68.017578 v -4 h -4.001953 v 4 z m -4.001953,0 h -8.001953 v 4.001953 H 48.013672 v 4.001953 h 8.001953 v 4 h 4 v 4.001954 4 h -4 v -4 h -8.001953 v 4 h 4 v 4.001953 h -4 v 4 h -4.001953 v -4 h -4 v 4 h -4.001953 v 4.001949 h 4.001953 v 4 4.00196 h 4 v 4.00195 h -4 v 4 h 8.001953 v -4 -4.00195 h 4 v -4.00196 h -8.001953 v -4 h 12.003906 v -4.001949 -4 h 16.003906 v -4.001953 h -8.001953 v -4 -4.001954 -4 -4.001953 h 4 z M 40.011719,112.03125 v -4.00195 h -8.003907 v 4.00195 4 h 4.001954 v -4 z M 36.009766,96.025391 v -4 -4.001953 h 4.001953 v -4 -4.001954 h -4.001953 v 4.001954 h -4.001954 v 4 4.001953 4 z m 0,-16.003907 v -4 h -4.001954 v 4 z m 12.003906,4.001954 v -4.001954 -4 h -4.001953 v 4 4.001954 z m -4.001953,-8.001954 v -4.001953 h -4 v 4.001953 z M 68.017578,44.011719 h 8.003906 v -4 h -8.003906 z m 8.003906,-4 h 4 v -4.001953 h -4 z m -8.003906,-20.00586 h -4 v 4 4.001953 h 4 v -4.001953 z m -4,0 v -4.001953 -4 H 60.015625 V 8.0019531 h -4 v 4.0019529 4 h -8.001953 v 4.001953 h 4 v 4 h 4.001953 v 4.001953 h 4 v -4.001953 -4 z m -8.001953,8.001953 h -4.001953 v -4.001953 h -4 v 4.001953 4 4.001954 h 4 v -4.001954 h 4.001953 z m 0,4 v 4.001954 4.001953 h 4 v -4.001953 h 4.001953 v -4.001954 z m -16.003906,-4 h -4.001953 v 4 4.001954 h 4.001953 v 4.001953 h 4 v -4.001953 -4.001954 h -4 z m 4,12.003907 v 4 h -4 v 4.001953 h -4.001953 v -4.001953 h -4.001954 v 4.001953 4 h 4.001954 v 4.001953 h 4.001953 v 4 h 4 v -4 -4.001953 -4 h 4.001953 v -4.001953 h 4 v -4 z m -4,20.003906 h -4.001953 v 4.001953 h -4.001954 v 4 h 8.003907 v -4 z m -8.003907,8.001953 h -4 v 4.001953 h 4 z m -4,4.001953 h -8.001953 v -4.001953 -4 h 4 v -4.001953 h -4 v -4 h -4.001953 v 4 h -4 v 4.001953 h 4 v 4 h -4 v -4 H 8.0019531 v 4 4.001953 h -4 V 68.017578 H 0 v 4.001953 4.001953 4 4.001954 h 4.0019531 v -4.001954 -4 h 4 v 4 h 4.0019529 v 4.001954 h 8.001953 v -4.001954 h -4.001953 v -4 h -4 v -4.001953 h 4 v 4.001953 H 28.007812 Z M 12.003906,60.015625 v -4 H 8.0019531 v 4 z m -4.0019529,-4 v -4.001953 -4 h -4 v 4 4.001953 z m -4,-8.001953 V 44.011719 H 0 v 4.001953 z m 0,-4.001953 h 8.0019529 v -4 H 4.0019531 Z m 0,-4 v -4.001953 h 4 V 32.007812 H 0 v 4.001954 4.001953 z m 8.0019529,0 h 4 v -4.001953 h -4 z m 4,0 v 4 h 4.001953 v -4 z m 4.001953,0 h 4 v -4.001953 h 4.001953 v 4.001953 h -4.001953 v 4 h 8.001953 v -4 h 4.001954 V 36.009766 H 32.007812 V 32.007812 H 20.005859 v 4.001954 z m 16.003907,0 v 4 h 4.001953 v -4 z m -12.003907,4 h -4 v 4.001953 h 4 z m 0,4.001953 v 4 h 4.001953 v -4 z m 0,4 h -4 v 4.001953 h 4 z m 0,4.001953 v 4 h 12.003907 v -4 z m 0,8.001953 v 4 h 4.001953 v -4 z M 36.009766,28.007812 v -4.001953 h -4.001954 v 4.001953 z m 0,-8.001953 v -4.001953 -4 h -4.001954 v 4 4.001953 z M 88.023438,0 v 4.0019531 4 4.0019529 4 4.001953 4 4.001953 h 28.007812 v -4.001953 -4 -4.001953 -4 -4.0019529 -4 V 0 Z M 4.0019531,4.0019531 H 24.005859 v 4 4.0019529 4 4.001953 4 H 4.0019531 v -4 -4.001953 -4 -4.0019529 z m 88.0234379,0 h 20.005859 v 4 4.0019529 4 4.001953 4 H 92.025391 v -4 -4.001953 -4 -4.0019529 z m -84.0234379,4 v 4.0019529 4 4.001953 H 20.005859 v -4.001953 -4 -4.0019529 z m 88.0234379,0 v 4.0019529 4 4.001953 H 108.0293 v -4.001953 -4 -4.0019529 z m 0,24.0058589 v 4.001954 h -4 v 4.001953 h 4 v 4 h 4.001949 v -4 -4.001953 h 4 v -4.001954 z m 8.001949,4.001954 v 4.001953 h 8.00391 v -4.001953 z m -4,8.001953 v 4.001953 h 4 v -4.001953 z m -88.023434,4.001953 v 4 h 4 v -4 z M 112.03125,60.015625 v 4.001953 h 4 V 60.015625 Z M 24.005859,80.021484 v 4.001954 h 4.001953 v -4.001954 z m 60.017579,4.001954 h 12.001953 v 4 4.001953 4 H 84.023438 v -4 -4.001953 z M 0,88.023438 v 4.001953 4 4.001949 4 4.00196 4.00195 4 h 28.007812 v -4 -4.00195 -4.00196 -4 -4.001949 -4 -4.001953 z m 88.023438,0 v 4.001953 h 4.001953 V 88.023438 Z M 4.0019531,92.025391 H 24.005859 v 4 4.001949 4 4.00196 4.00195 H 4.0019531 v -4.00195 -4.00196 -4 -4.001949 z m 4,4 v 4.001949 4 4.00196 H 20.005859 v -4.00196 -4 -4.001949 z m 52.0136719,0 v 4.001949 4 4.00196 4.00195 4 h 12.003906 v -4 h -4.001953 v -4.00195 h -4 v -4.00196 h 4 v -4 -4.001949 z m 28.007813,4.001949 h 12.003902 v 4 H 88.023438 Z"
   transform="scale(0.24993214)" />
<rect
   x="28"
   y="12"
   width="1"
   height="1"
   fill="#000000"
   id="rect1767" />
<rect
   x="17"
   y="20"
   width="1"
   height="1"
   fill="#000000"
   id="rect1887" />
<rect
   x="18"
   y="21"
   width="1"
   height="1"
   fill="#000000"
   id="rect1899" />
<rect
   x="27"
   y="23"
   width="1"
   height="1"
   fill="#000000"
   id="rect1931" />
<rect
   x="27"
   y="24"
   width="2"
   height="1"
   fill="#000000"
   id="rect1945" />
<rect
   x="28"
   y="25"
   width="1"
   height="1"
   fill="#000000"
   id="rect1961" />
<rect
   x="18"
   y="27"
   width="1"
   height="1"
   fill="#000000"
   id="rect1985" />
<rect
   x="28"
   y="27"
   width="1"
   height="1"
   fill="#000000"
   id="rect1991" />
<rect
   x="19"
   y="28"
   width="1"
   height="1"
   fill="#000000"
   id="rect2001" />

ntt</g>
    </g>
  </g>
</g>
</svg>
