<?xml version="1.0" encoding="UTF-8" standalone="no"?>
<svg
   xmlns:dc="http://purl.org/dc/elements/1.1/"
   xmlns:cc="http://creativecommons.org/ns#"
   xmlns:rdf="http://www.w3.org/1999/02/22-rdf-syntax-ns#"
   xmlns:svg="http://www.w3.org/2000/svg"
   xmlns="http://www.w3.org/2000/svg"
   xmlns:sodipodi="http://sodipodi.sourceforge.net/DTD/sodipodi-0.dtd"
   xmlns:inkscape="http://www.inkscape.org/namespaces/inkscape"
   width="6.4468732cm"
   height="7.2236409cm"
   viewBox="0 0 60.898803 68.236349"
   preserveAspectRatio="none"
   version="1.1"
   id="svg2009"
   sodipodi:docname="ggtrack-favicon.svg"
   inkscape:version="1.0.2 (e86c870879, 2021-01-15)"><metadata
   id="metadata2015">
  <rdf:RDF>
    <cc:Work
       rdf:about="">
      <dc:format>image/svg+xml</dc:format>
      <dc:type
         rdf:resource="http://purl.org/dc/dcmitype/StillImage" />
      <dc:title></dc:title>
    </cc:Work>
  </rdf:RDF>
</metadata>
<defs
   id="defs2013">nttnttnt</defs>
<sodipodi:namedview
   pagecolor="#ffffff"
   bordercolor="#666666"
   borderopacity="1"
   objecttolerance="10"
   gridtolerance="10"
   guidetolerance="10"
   inkscape:pageopacity="0"
   inkscape:pageshadow="2"
   inkscape:window-width="2560"
   inkscape:window-height="1372"
   id="namedview2011"
   showgrid="false"
   inkscape:zoom="1.4564884"
   inkscape:cx="332.68306"
   inkscape:cy="155.97157"
   inkscape:window-x="0"
   inkscape:window-y="34"
   inkscape:window-maximized="1"
   inkscape:current-layer="svg2009"
   inkscape:document-rotation="0">
  <inkscape:grid
     type="xygrid"
     id="grid3317" />
</sodipodi:namedview>


nt<path
   style="fill:#ff9955;fill-opacity:1;stroke:#20212b;stroke-width:0.749795;stroke-linecap:butt;stroke-linejoin:miter;stroke-miterlimit:4;stroke-dasharray:none;stroke-opacity:1"
   d="M 1.384064,17.451526 V 51.078775 L 30.577993,67.804077 59.771924,51.013408 V 17.301238 L 30.577993,0.433458 Z"
   id="path995" />
<path
   stroke="none"
   d="M 0,2.226824 H 60.898802 V 63.125625 H 0 Z"
   fill="none"
   id="path2"
   style="stroke-width:3.80618" />


n<path
   style="fill:#20212b;fill-opacity:1;stroke:#20212b;stroke-width:0.36983;stroke-linecap:butt;stroke-linejoin:miter;stroke-miterlimit:4;stroke-dasharray:none;stroke-opacity:1"
   d="m 1.7834308,50.792695 1.229418,-3.342705 1.228264,1.237286 1.228264,-3.711863 1.228263,4.949152 1.228264,-3.711864 1.228264,-6.18644 1.2282652,4.949152 1.228262,-2.474576 1.228264,6.186439 1.228264,2.474576 1.228262,-1.237287 1.228265,2.474575 1.228266,-3.711864 1.228261,-1.237286 1.228265,3.711862 1.228264,-1.237287 1.228265,2.474576 1.228263,-3.711865 1.228263,-1.237286 1.228264,-2.474576 1.228263,-2.474576 1.228265,-6.186439 1.22826,8.661014 1.22827,-2.474576 1.22826,1.237288 1.22826,-2.474575 1.22827,-2.474575 1.22826,-2.474576 1.22827,1.237287 1.22826,-2.474575 2.45653,-7.423726 1.22826,2.474575 1.22826,3.711863 1.22827,2.474576 1.22826,-2.474576 1.22827,-1.237287 1.22826,-3.711865 1.22826,4.949152 1.22827,-2.474577 1.22826,-1.237286 1.22827,-1.237289 1.22826,-6.186439 1.22826,2.474576 1.22827,-4.949152 1.22826,-1.237287 1.22826,-1.237288 c -3.31342,10.08232 -6.68368,20.127267 -11.51766,29.209874 l -17.44576,7.533265 -0.5577,2.986173 z"
   id="path3319-6"
   sodipodi:nodetypes="ccccccccccccccccccccccccccccccccccccccccccccccccccc" />
<path
   style="fill:#8c4c66;fill-opacity:1;stroke:none;stroke-width:0.36983;stroke-linecap:butt;stroke-linejoin:miter;stroke-miterlimit:4;stroke-dasharray:none;stroke-opacity:1"
   d="m 1.749525,50.986157 1.2623456,-3.546066 1.2282637,1.237286 1.2282638,-3.711863 1.2282637,4.949152 1.2282639,-3.711864 1.2282637,-6.18644 1.2282646,4.949152 1.228262,-2.474576 1.228265,6.186439 1.228264,2.474576 1.228262,-1.237287 1.228265,2.474575 1.228265,-3.711864 1.228262,-1.237286 1.228265,3.711862 1.228263,-1.237287 1.228265,2.474576 1.228263,-3.711865 1.228264,-1.237286 1.228264,-2.474576 1.228263,-2.474576 1.228264,-6.186439 1.228264,8.661014 1.228263,-2.474576 1.228264,1.237288 1.228265,-2.474575 1.228263,-2.474575 1.228264,-2.474576 1.228264,1.237287 1.228263,-2.474575 2.456529,-7.423726 1.228263,2.474575 1.228262,3.711863 1.228266,2.474576 1.228263,-2.474576 1.228264,-1.237287 1.228264,-3.711865 1.228263,4.949152 1.228264,-2.474577 1.228264,-1.237286 1.228264,-1.237289 1.228264,-6.186439 1.228265,2.474576 1.228263,-4.949152 1.228263,-1.237287 1.11293,-1.237288 0.0019,33.051393 -28.824739,16.685104 v 0 z"
   id="path3319"
   sodipodi:nodetypes="ccccccccccccccccccccccccccccccccccccccccccccccccccc" />
</svg>
